<?xml version="1.0" standalone="no"?>
<!DOCTYPE svg PUBLIC "-//W3C//DTD SVG 20010904//EN"
 "http://www.w3.org/TR/2001/REC-SVG-20010904/DTD/svg10.dtd">
<svg version="1.0" xmlns="http://www.w3.org/2000/svg"
 width="860.000000pt" height="581.000000pt" viewBox="0 0 860.000000 581.000000"
 preserveAspectRatio="xMidYMid meet">

<g transform="translate(0.000000,581.000000) scale(0.100000,-0.100000)"
fill="#000000" stroke="none">
<path d="M4050 5356 c-172 -46 -327 -122 -525 -257 -169 -115 -262 -195 -461
-394 -105 -105 -218 -209 -251 -232 -140 -93 -322 -141 -488 -129 -227 17
-426 83 -815 272 -118 57 -220 104 -227 104 -19 0 -217 -480 -483 -1170 -46
-118 -147 -377 -225 -575 -132 -331 -255 -670 -255 -699 0 -7 31 -17 73 -25
39 -7 160 -39 268 -71 301 -89 512 -130 679 -130 117 0 114 -2 149 109 67 214
265 462 606 762 345 303 1280 1098 1570 1335 298 243 385 304 437 304 86 0
251 -83 598 -301 378 -237 549 -317 701 -327 121 -7 188 27 246 125 35 60 34
113 -6 190 -172 341 -962 995 -1345 1112 -86 27 -139 26 -246 -3z"/>
<path d="M7480 5259 c-105 -48 -277 -103 -390 -125 -58 -11 -167 -18 -340 -21
-284 -6 -535 8 -1025 57 -367 36 -592 53 -674 48 l-65 -3 120 -99 c450 -375
755 -706 834 -907 34 -84 25 -161 -24 -234 -95 -137 -339 -265 -507 -265 -135
0 -291 46 -479 140 -140 70 -236 128 -495 299 -110 73 -226 146 -259 163 l-59
30 -46 -45 c-334 -320 -761 -683 -1546 -1317 -645 -520 -825 -712 -825 -880 1
-99 87 -206 216 -266 142 -66 221 -42 564 174 462 292 666 440 1084 791 197
166 363 301 368 301 32 0 -57 -139 -177 -275 -276 -313 -711 -689 -1070 -925
-78 -51 -112 -80 -118 -98 -5 -15 -9 -74 -10 -132 -4 -217 73 -290 302 -290
351 0 769 278 1469 977 138 138 252 246 252 239 0 -33 -183 -297 -314 -451
-348 -412 -680 -706 -947 -840 -88 -45 -88 -45 -83 -77 27 -145 140 -216 328
-206 162 9 339 87 512 225 116 93 433 404 734 721 100 106 185 191 187 188 9
-8 -97 -208 -164 -310 -152 -233 -309 -421 -591 -708 l-165 -168 7 -47 c15
-115 62 -195 139 -236 59 -31 176 -30 272 2 86 29 265 119 265 133 0 6 -7 47
-16 90 -11 55 -15 114 -12 196 4 134 16 164 92 248 54 61 120 93 267 131 57
14 105 27 107 29 3 2 -25 153 -48 259 -17 77 -12 200 11 262 28 72 94 144 168
180 51 25 66 28 171 28 63 0 147 -4 185 -8 l71 -8 12 43 c7 24 24 85 38 137
47 170 87 233 188 290 170 97 387 70 567 -71 20 -15 39 -28 42 -28 3 0 21 28
39 63 71 134 232 260 417 327 215 78 375 100 769 107 l312 5 0 44 c0 194 -305
1434 -474 1929 -78 227 -77 225 -89 224 -7 -1 -50 -19 -97 -40z"/>
<path d="M7038 2679 c-100 -55 -169 -118 -206 -189 -31 -59 -34 -71 -29 -130
5 -67 55 -211 76 -218 6 -2 31 6 56 18 141 68 238 240 221 388 -6 47 -47 163
-58 162 -2 0 -29 -14 -60 -31z"/>
<path d="M6233 2515 c-53 -16 -128 -63 -170 -107 -73 -76 -97 -203 -58 -318
62 -187 219 -412 344 -492 144 -91 401 46 435 232 12 68 -48 231 -165 446
-116 213 -234 287 -386 239z"/>
<path d="M5531 2020 c-79 -36 -140 -91 -168 -148 -22 -45 -27 -72 -31 -156 -7
-163 17 -225 149 -382 67 -80 166 -167 224 -197 52 -26 145 -38 206 -27 174
33 291 171 290 343 0 63 -3 73 -47 145 -115 190 -271 364 -372 414 -67 33
-189 37 -251 8z"/>
<path d="M5121 1283 c-14 -3 -55 -35 -91 -71 -150 -150 -167 -296 -59 -496 35
-65 45 -77 82 -90 256 -95 570 43 571 249 0 61 -21 105 -81 176 -134 158 -311
255 -422 232z"/>
</g>
</svg>
