<svg version="1.0" xmlns="http://www.w3.org/2000/svg"
     width="200.000000pt" height="200.000000pt" viewBox="0 0 200.000000 200.000000"
     preserveAspectRatio="xMidYMid meet">

    <g transform="translate(0.000000,200.000000) scale(0.100000,-0.100000)"
       fill="#EC5A29" stroke="none">
        <path d="M465 1898 c-3 -7 -4 -416 -3 -908 l3 -895 213 -3 c197 -2 212 -1 212
15 0 10 0 174 0 365 l0 348 265 2 266 3 2 175 1 175 -264 5 -265 5 -3 182 -2
183 322 2 323 3 0 175 0 175 -533 3 c-421 2 -534 0 -537 -10z"/>
    </g>
</svg>