<?xml version="1.0" standalone="no"?>
<!DOCTYPE svg PUBLIC "-//W3C//DTD SVG 20010904//EN"
 "http://www.w3.org/TR/2001/REC-SVG-20010904/DTD/svg10.dtd">
<svg version="1.0" xmlns="http://www.w3.org/2000/svg"
 width="860.000000pt" height="900.000000pt" viewBox="0 0 860.000000 900.000000"
 preserveAspectRatio="xMidYMid meet">

<g transform="translate(0.000000,900.000000) scale(0.100000,-0.100000)"
fill="#000000" stroke="none">
<path d="M3977 8580 c-1123 -101 -2106 -628 -2808 -1507 -457 -571 -736 -1246
-836 -2018 -27 -216 -25 -731 5 -951 66 -489 186 -883 395 -1300 381 -760 986
-1370 1742 -1760 831 -428 1784 -551 2700 -348 637 141 1259 455 1744 878 113
99 331 318 427 430 759 882 1093 2094 898 3256 -234 1397 -1196 2568 -2527
3075 -279 106 -585 182 -907 225 -176 24 -660 35 -833 20z m529 -1205 c718
-126 1158 -851 938 -1547 -96 -305 -332 -575 -621 -714 -184 -87 -341 -118
-563 -111 -178 6 -284 29 -437 94 -264 115 -501 352 -616 616 -68 158 -89 258
-94 447 -4 142 -2 180 17 270 98 482 483 858 965 944 108 19 302 20 411 1z
m134 -3161 c265 -30 567 -95 825 -176 459 -143 813 -338 1022 -562 121 -130
186 -254 206 -393 10 -70 10 -72 -18 -115 -95 -145 -285 -362 -442 -504 -375
-339 -819 -567 -1313 -678 -170 -38 -323 -56 -530 -63 -952 -31 -1857 415
-2422 1195 l-61 84 6 68 c40 472 774 922 1812 1109 113 21 334 48 440 55 96 6
340 -4 475 -20z"/>
</g>
</svg>
