<?xml version="1.0" standalone="no"?>
<!DOCTYPE svg PUBLIC "-//W3C//DTD SVG 20010904//EN"
 "http://www.w3.org/TR/2001/REC-SVG-20010904/DTD/svg10.dtd">
<svg version="1.0" xmlns="http://www.w3.org/2000/svg"
 width="200.000000pt" height="200.000000pt" viewBox="0 0 200.000000 200.000000"
 preserveAspectRatio="xMidYMid meet">

<g transform="translate(0.000000,200.000000) scale(0.100000,-0.100000)"
fill="#000000" stroke="none">
<path d="M879 1947 c-98 -41 -158 -96 -203 -185 -97 -191 -15 -422 182 -515
60 -28 77 -32 157 -32 85 0 96 2 167 38 90 44 136 92 181 187 27 57 31 75 31
150 -1 155 -75 275 -212 342 -58 29 -78 33 -157 36 -76 2 -99 -1 -146 -21z
m393 -253 c34 -17 42 -45 36 -127 -10 -156 -133 -270 -290 -270 -163 0 -298
133 -298 294 0 67 3 69 73 47 91 -29 169 -21 260 28 108 56 152 62 219 28z"/>
<path d="M610 1216 c-128 -36 -230 -139 -230 -233 0 -10 134 -13 636 -13 l637
0 -6 37 c-14 83 -102 176 -195 203 -20 7 -66 14 -102 17 -60 5 -69 3 -115 -26
-129 -79 -313 -79 -436 -1 -51 34 -108 38 -189 16z"/>
<path d="M338 901 l-33 -29 0 -374 c0 -205 4 -383 8 -395 8 -22 7 -22 -115
-25 -101 -3 -123 -6 -123 -18 0 -13 111 -15 928 -18 922 -2 927 -2 927 18 0
19 -7 20 -111 20 -102 0 -110 1 -103 17 14 28 17 711 4 755 -6 20 -22 46 -37
57 -25 21 -35 21 -669 21 l-644 0 -32 -29z m767 -212 c10 -14 -124 -401 -143
-417 -13 -10 -19 -9 -31 3 -13 13 -8 35 44 187 78 230 82 238 105 238 10 0 22
-5 25 -11z m-227 -105 c2 -16 -10 -33 -43 -60 l-46 -37 45 -40 c47 -39 58 -70
31 -81 -16 -6 -132 85 -142 112 -5 11 13 33 58 74 66 60 92 68 97 32z m368
-25 c71 -62 77 -71 61 -91 -29 -36 -128 -107 -142 -102 -28 11 -15 42 31 81
l47 37 -47 42 c-43 40 -55 62 -39 77 14 14 32 5 89 -44z"/>
</g>
</svg>
