<?xml version="1.0" standalone="no"?>
<!DOCTYPE svg PUBLIC "-//W3C//DTD SVG 20010904//EN"
 "http://www.w3.org/TR/2001/REC-SVG-20010904/DTD/svg10.dtd">
<svg version="1.0" xmlns="http://www.w3.org/2000/svg"
 width="920.000000pt" height="768.000000pt" viewBox="0 0 920.000000 768.000000"
 preserveAspectRatio="xMidYMid meet">

<g transform="translate(0.000000,768.000000) scale(0.100000,-0.100000)"
fill="#000000" stroke="none">
<path d="M4162 7669 c-283 -38 -506 -145 -698 -334 -166 -164 -252 -319 -291
-525 l-17 -90 -506 0 c-563 0 -578 -2 -702 -67 -113 -59 -190 -163 -217 -291
-16 -75 -16 -4969 0 -5044 27 -128 108 -233 225 -295 124 -66 48 -63 1569 -63
l1380 0 -622 618 c-718 713 -678 663 -678 842 0 115 16 167 86 288 37 63 474
513 546 563 60 42 115 59 218 69 152 15 272 -22 443 -137 71 -48 126 -103 346
-343 144 -157 275 -300 291 -318 15 -17 31 -32 35 -32 5 0 340 355 471 500 12
14 50 54 83 90 34 36 113 121 176 190 63 68 178 192 255 275 290 312 363 391
403 436 l42 46 0 1131 c0 793 -3 1147 -11 1184 -37 173 -160 293 -354 343 -49
12 -142 15 -565 15 l-506 0 -17 90 c-39 206 -125 360 -291 525 -127 125 -227
190 -390 254 -152 60 -271 82 -466 86 -91 2 -198 -1 -238 -6z m335 -514 c225
-42 396 -199 497 -457 50 -128 86 -296 86 -405 l0 -53 508 0 c550 0 590 -4
692 -55 110 -56 194 -176 225 -324 8 -40 15 -79 15 -87 0 -12 -291 -14 -2161
-14 l-2161 0 7 53 c22 170 112 310 242 376 95 48 134 51 679 51 l510 0 17 133
c28 225 97 417 201 554 144 190 387 277 643 228z m-1498 -1891 c108 -32 172
-135 158 -254 -12 -98 -64 -162 -160 -194 -63 -21 -322 -22 -391 -2 -108 33
-161 106 -161 226 0 118 52 193 157 225 64 20 329 20 397 -1z m3115 2 c108
-33 161 -106 161 -226 0 -120 -48 -187 -158 -224 -43 -14 -166 -16 -1156 -16
-1248 0 -1177 -4 -1255 74 -120 120 -69 341 91 390 71 22 2245 23 2317 2z
m-3120 -960 c108 -33 161 -106 161 -226 0 -120 -48 -187 -158 -224 -63 -21
-322 -22 -391 -2 -108 33 -161 106 -161 226 0 118 52 193 157 225 61 19 330
20 392 1z m3120 0 c62 -19 111 -57 138 -109 18 -33 23 -58 22 -117 0 -120 -47
-187 -157 -224 -43 -14 -166 -16 -1156 -16 -1248 0 -1177 -4 -1256 74 -93 93
-83 273 20 351 72 55 32 54 1231 54 931 1 1118 -1 1158 -13z"/>
<path d="M4294 6706 c-49 -22 -98 -88 -126 -173 -29 -85 -48 -185 -48 -251 l0
-42 241 0 242 0 -6 75 c-8 90 -33 204 -57 261 -22 50 -73 110 -111 130 -35 17
-94 18 -135 0z"/>
<path d="M7355 3810 c-24 -10 -91 -79 -301 -310 -607 -670 -1407 -1541 -1426
-1554 -32 -23 -82 -30 -121 -17 -25 9 -101 80 -273 259 -131 136 -304 315
-385 397 -80 83 -176 182 -213 222 -37 39 -82 78 -101 87 -38 18 -92 21 -132
5 -37 -14 -280 -254 -304 -301 -22 -44 -25 -112 -5 -150 14 -26 159 -192 481
-548 136 -151 698 -776 820 -913 39 -44 82 -85 97 -93 35 -18 92 -18 127 1 16
8 149 144 297 302 147 158 298 320 334 358 36 39 97 104 136 145 38 41 101
109 140 150 39 41 171 183 294 315 123 132 253 272 290 310 36 39 192 205 345
370 154 165 304 326 335 358 147 155 149 207 11 351 -62 65 -210 189 -288 242
-37 25 -116 32 -158 14z"/>
</g>
</svg>
